<?xml version="1.0"?>
<svg width="410" height="410" viewPort="0 0 410 410" version="1.1" xmlns="http://www.w3.org/2000/svg" id="polygons">
	<polygon style="stroke: rgba(184,176,170,0.5);fill:transparent;stroke-width: 1px;" points="224,197 223,208 217,217 208,223 197,224 187,220 180,213 176,202 177,192 183,183 192,177 203,176 213,180 220,187 "></polygon>
	<polygon style="stroke: rgba(184,176,170,0.5);fill:transparent;stroke-width: 1px;" points="230,212 221,224 209,231 195,231 182,226 172,216 168,202 170,188 179,176 191,169 205,169 218,174 228,184 232,198 "></polygon>
	<polygon style="stroke: rgba(184,176,170,0.5);fill:transparent;stroke-width: 1px;" points="226,230 210,239 192,239 176,232 165,218 160,201 164,184 174,169 190,161 208,161 224,168 235,182 240,199 236,216 "></polygon>
	<polygon style="stroke: rgba(184,176,170,0.5);fill:transparent;stroke-width: 1px;" points="210,247 189,246 170,237 157,220 152,199 157,179 171,162 190,153 211,154 230,163 243,180 248,201 243,221 229,238 "></polygon>
	<polygon style="stroke: rgba(184,176,170,0.5);fill:transparent;stroke-width: 1px;" points="185,253 163,241 149,221 145,197 151,173 168,155 191,145 215,147 237,159 251,179 255,203 249,227 232,245 209,255 "></polygon>
	<polygon style="stroke: rgba(184,176,170,0.5);fill:transparent;stroke-width: 1px;" points="156,246 140,222 137,194 146,167 165,147 192,137 220,140 244,154 260,178 263,206 254,233 235,253 208,263 180,260 "></polygon>
	<polygon style="stroke: rgba(184,176,170,0.5);fill:transparent;stroke-width: 1px;" points="132,222 129,190 141,161 164,139 194,129 225,133 252,151 268,178 271,210 259,239 236,261 206,271 175,267 148,249 "></polygon>
	<polygon style="stroke: rgba(184,176,170,0.5);fill:transparent;stroke-width: 1px;" points="122,186 136,154 162,130 196,121 231,127 260,148 276,179 278,214 264,246 238,270 204,279 169,273 140,252 124,221 "></polygon>
	<polygon style="stroke: rgba(184,176,170,0.5);fill:transparent;stroke-width: 1px;" points="131,146 162,122 199,113 237,121 268,145 285,180 285,219 268,254 238,278 201,287 163,279 132,255 115,220 115,181 "></polygon>
	<polygon style="stroke: rgba(184,176,170,0.5);fill:transparent;stroke-width: 1px;" points="162,113 203,105 244,116 276,143 293,182 292,224 272,262 238,287 197,295 156,284 124,257 107,218 108,176 128,138 "></polygon>
	<polygon style="stroke: rgba(184,176,170,0.5);fill:transparent;stroke-width: 1px;" points="207,97 251,111 285,142 302,184 298,230 276,270 238,296 192,303 149,289 115,258 98,215 102,170 125,130 162,104 "></polygon>
	<polygon style="stroke: rgba(184,176,170,0.5);fill:transparent;stroke-width: 1px;" points="259,106 294,141 310,188 305,237 278,278 237,305 188,310 141,294 106,259 90,212 95,163 122,122 164,95 213,90 "></polygon>
	<polygon style="stroke: rgba(184,176,170,0.5);fill:transparent;stroke-width: 1px;" points="303,141 318,191 310,244 280,287 235,314 182,317 133,298 97,259 82,208 90,156 120,113 166,86 218,83 267,102 "></polygon>
	<polygon style="stroke: rgba(184,176,170,0.5);fill:transparent;stroke-width: 1px;" points="326,196 316,251 282,296 232,322 176,324 124,301 88,258 74,204 84,149 118,104 168,78 224,76 276,99 312,142 "></polygon>
	<polygon style="stroke: rgba(184,176,170,0.5);fill:transparent;stroke-width: 1px;" points="321,259 283,306 229,331 169,331 115,304 78,257 66,199 79,141 117,94 171,69 231,69 285,96 322,143 334,201 "></polygon>
	<polygon style="stroke: rgba(184,176,170,0.5);fill:transparent;stroke-width: 1px;" points="283,315 225,340 162,337 106,307 69,255 58,193 75,132 117,85 175,60 238,63 294,93 331,145 342,207 325,268 "></polygon>
	<polygon style="stroke: rgba(184,176,170,0.5);fill:transparent;stroke-width: 1px;" points="220,349 154,343 96,309 59,253 50,187 71,123 117,75 180,51 246,57 304,91 341,147 350,213 329,277 283,325 "></polygon>
	<polygon style="stroke: rgba(184,176,170,0.5);fill:transparent;stroke-width: 1px;" points="145,348 86,310 50,250 43,180 68,114 118,65 185,43 255,52 314,90 350,150 357,220 332,286 282,335 215,357 "></polygon>
	<path style="stroke: rgba(184,176,170,0.5);fill:transparent;stroke-width: 1px;" d="M 224,197 L 230,212 L 226,230 L 210,247 L 185,253 L 156,246 L 132,222 L 122,186 L 131,146 L 162,113 L 207,97 L 259,106 L 303,141 L 326,196 L 321,259 L 283,315 L 220,349 L 145,348  "></path>
	<path style="stroke: rgba(184,176,170,0.5);fill:transparent;stroke-width: 1px;" d="M 223,208 L 221,224 L 210,239 L 189,246 L 163,241 L 140,222 L 129,190 L 136,154 L 162,122 L 203,105 L 251,111 L 294,141 L 318,191 L 316,251 L 283,306 L 225,340 L 154,343 L 86,310  "></path>
	<path style="stroke: rgba(184,176,170,0.5);fill:transparent;stroke-width: 1px;" d="M 217,217 L 209,231 L 192,239 L 170,237 L 149,221 L 137,194 L 141,161 L 162,130 L 199,113 L 244,116 L 285,142 L 310,188 L 310,244 L 282,296 L 229,331 L 162,337 L 96,309 L 50,250  "></path>
	<path style="stroke: rgba(184,176,170,0.5);fill:transparent;stroke-width: 1px;" d="M 208,223 L 195,231 L 176,232 L 157,220 L 145,197 L 146,167 L 164,139 L 196,121 L 237,121 L 276,143 L 302,184 L 305,237 L 280,287 L 232,322 L 169,331 L 106,307 L 59,253 L 43,180  "></path>
	<path style="stroke: rgba(184,176,170,0.5);fill:transparent;stroke-width: 1px;" d="M 197,224 L 182,226 L 165,218 L 152,199 L 151,173 L 165,147 L 194,129 L 231,127 L 268,145 L 293,182 L 298,230 L 278,278 L 235,314 L 176,324 L 115,304 L 69,255 L 50,187 L 68,114  "></path>
	<path style="stroke: rgba(184,176,170,0.5);fill:transparent;stroke-width: 1px;" d="M 187,220 L 172,216 L 160,201 L 157,179 L 168,155 L 192,137 L 225,133 L 260,148 L 285,180 L 292,224 L 276,270 L 237,305 L 182,317 L 124,301 L 78,257 L 58,193 L 71,123 L 118,65  "></path>
	<path style="stroke: rgba(184,176,170,0.5);fill:transparent;stroke-width: 1px;" d="M 180,213 L 168,202 L 164,184 L 171,162 L 191,145 L 220,140 L 252,151 L 276,179 L 285,219 L 272,262 L 238,296 L 188,310 L 133,298 L 88,258 L 66,199 L 75,132 L 117,75 L 185,43  "></path>
	<path style="stroke: rgba(184,176,170,0.5);fill:transparent;stroke-width: 1px;" d="M 176,202 L 170,188 L 174,169 L 190,153 L 215,147 L 244,154 L 268,178 L 278,214 L 268,254 L 238,287 L 192,303 L 141,294 L 97,259 L 74,204 L 79,141 L 117,85 L 180,51 L 255,52  "></path>
	<path style="stroke: rgba(184,176,170,0.5);fill:transparent;stroke-width: 1px;" d="M 177,192 L 179,176 L 190,161 L 211,154 L 237,159 L 260,178 L 271,210 L 264,246 L 238,278 L 197,295 L 149,289 L 106,259 L 82,208 L 84,149 L 117,94 L 175,60 L 246,57 L 314,90  "></path>
	<path style="stroke: rgba(184,176,170,0.5);fill:transparent;stroke-width: 1px;" d="M 183,183 L 191,169 L 208,161 L 230,163 L 251,179 L 263,206 L 259,239 L 238,270 L 201,287 L 156,284 L 115,258 L 90,212 L 90,156 L 118,104 L 171,69 L 238,63 L 304,91 L 350,150  "></path>
	<path style="stroke: rgba(184,176,170,0.5);fill:transparent;stroke-width: 1px;" d="M 192,177 L 205,169 L 224,168 L 243,180 L 255,203 L 254,233 L 236,261 L 204,279 L 163,279 L 124,257 L 98,215 L 95,163 L 120,113 L 168,78 L 231,69 L 294,93 L 341,147 L 357,220  "></path>
	<path style="stroke: rgba(184,176,170,0.5);fill:transparent;stroke-width: 1px;" d="M 203,176 L 218,174 L 235,182 L 248,201 L 249,227 L 235,253 L 206,271 L 169,273 L 132,255 L 107,218 L 102,170 L 122,122 L 166,86 L 224,76 L 285,96 L 331,145 L 350,213 L 332,286  "></path>
	<path style="stroke: rgba(184,176,170,0.5);fill:transparent;stroke-width: 1px;" d="M 213,180 L 228,184 L 240,199 L 243,221 L 232,245 L 208,263 L 175,267 L 140,252 L 115,220 L 108,176 L 125,130 L 164,95 L 218,83 L 276,99 L 322,143 L 342,207 L 329,277 L 282,335  "></path>
	<path style="stroke: rgba(184,176,170,0.5);fill:transparent;stroke-width: 1px;" d="M 220,187 L 232,198 L 236,216 L 229,238 L 209,255 L 180,260 L 148,249 L 124,221 L 115,181 L 128,138 L 162,104 L 213,90 L 267,102 L 312,142 L 334,201 L 325,268 L 283,325 L 215,357  "></path>
</svg>